<svg width="830" height="88" viewBox="0 0 830 88" fill="none" xmlns="http://www.w3.org/2000/svg">
<path d="M0 0H830V88H0V0Z" fill="#090B11"/>
<path d="M392.928 16.384C391.819 16.384 390.923 16.0853 390.24 15.488C389.579 14.8693 389.248 14.1013 389.248 13.184C389.248 12.2453 389.579 11.4667 390.24 10.848C390.923 10.2293 391.819 9.92 392.928 9.92C394.016 9.92 394.891 10.2293 395.552 10.848C396.235 11.4667 396.576 12.2453 396.576 13.184C396.576 14.1013 396.235 14.8693 395.552 15.488C394.891 16.0853 394.016 16.384 392.928 16.384ZM396.064 37.76C396.064 42.304 393.781 44.576 389.216 44.576H386.944V39.232H388.288C388.821 39.232 389.205 39.1253 389.44 38.912C389.675 38.6987 389.792 38.3467 389.792 37.856V18.048H396.064V37.76Z" fill="white"/>
<path d="M417.973 18.048V36H411.668V33.44C411.135 34.2507 410.399 34.912 409.461 35.424C408.522 35.9147 407.445 36.16 406.229 36.16C404.138 36.16 402.484 35.4773 401.268 34.112C400.074 32.7253 399.477 30.848 399.477 28.48V18.048H405.716V27.68C405.716 28.704 405.983 29.5147 406.517 30.112C407.071 30.688 407.797 30.976 408.693 30.976C409.61 30.976 410.335 30.688 410.868 30.112C411.402 29.5147 411.668 28.704 411.668 27.68V18.048H417.973Z" fill="white"/>
<path d="M429.19 36.224C427.569 36.224 426.118 35.9573 424.838 35.424C423.579 34.8693 422.577 34.1227 421.83 33.184C421.105 32.224 420.699 31.1467 420.614 29.952H426.694C426.779 30.528 427.046 30.976 427.494 31.296C427.942 31.616 428.497 31.776 429.158 31.776C429.67 31.776 430.075 31.6693 430.374 31.456C430.673 31.2427 430.822 30.9653 430.822 30.624C430.822 30.176 430.577 29.8453 430.086 29.632C429.595 29.4187 428.785 29.184 427.654 28.928C426.374 28.672 425.307 28.384 424.454 28.064C423.601 27.744 422.854 27.2213 422.214 26.496C421.595 25.7707 421.286 24.7893 421.286 23.552C421.286 22.4853 421.574 21.5253 422.15 20.672C422.726 19.7973 423.569 19.104 424.678 18.592C425.809 18.08 427.163 17.824 428.742 17.824C431.089 17.824 432.934 18.4 434.278 19.552C435.622 20.704 436.401 22.2187 436.614 24.096H430.95C430.843 23.52 430.587 23.0827 430.182 22.784C429.798 22.464 429.275 22.304 428.614 22.304C428.102 22.304 427.707 22.4 427.43 22.592C427.174 22.784 427.046 23.0507 427.046 23.392C427.046 23.8187 427.291 24.1493 427.782 24.384C428.273 24.5973 429.062 24.8213 430.15 25.056C431.451 25.3333 432.529 25.6427 433.382 25.984C434.257 26.3253 435.014 26.88 435.654 27.648C436.315 28.3947 436.646 29.4187 436.646 30.72C436.646 31.7653 436.337 32.704 435.718 33.536C435.121 34.368 434.257 35.0293 433.126 35.52C432.017 35.9893 430.705 36.224 429.19 36.224Z" fill="white"/>
<path d="M400.384 68.656V74H397.664C393.077 74 390.784 71.728 390.784 67.184V61.264H388.576V56.048H390.784V51.696H397.088V56.048H400.352V61.264H397.088V67.28C397.088 67.7707 397.195 68.1227 397.408 68.336C397.643 68.5493 398.027 68.656 398.56 68.656H400.384Z" fill="white"/>
<path d="M406.429 54.384C405.319 54.384 404.423 54.0853 403.741 53.488C403.079 52.8693 402.749 52.1013 402.749 51.184C402.749 50.2453 403.079 49.4667 403.741 48.848C404.423 48.2293 405.319 47.92 406.429 47.92C407.517 47.92 408.391 48.2293 409.053 48.848C409.735 49.4667 410.077 50.2453 410.077 51.184C410.077 52.1013 409.735 52.8693 409.053 53.488C408.391 54.0853 407.517 54.384 406.429 54.384ZM409.533 56.048V74H403.261V56.048H409.533Z" fill="white"/>
<path d="M424.849 55.888C426.918 55.888 428.56 56.5813 429.776 57.968C430.992 59.3333 431.6 61.1893 431.6 63.536V74H425.328V64.368C425.328 63.344 425.062 62.544 424.529 61.968C423.995 61.3707 423.28 61.072 422.384 61.072C421.446 61.072 420.71 61.3707 420.177 61.968C419.643 62.544 419.376 63.344 419.376 64.368V74H413.104V56.048H419.376V58.608C419.931 57.7973 420.678 57.1467 421.617 56.656C422.555 56.144 423.633 55.888 424.849 55.888Z" fill="white"/>
<path d="M438.082 74.256C436.973 74.256 436.077 73.9573 435.394 73.36C434.733 72.7413 434.402 71.9627 434.402 71.024C434.402 70.0853 434.733 69.3067 435.394 68.688C436.077 68.0693 436.973 67.76 438.082 67.76C439.17 67.76 440.045 68.0693 440.706 68.688C441.389 69.3067 441.73 70.0853 441.73 71.024C441.73 71.9413 441.389 72.7093 440.706 73.328C440.045 73.9467 439.17 74.256 438.082 74.256Z" fill="#2989FF"/>
</svg>
