<svg width="39" height="48" viewBox="0 0 39 48" fill="none" xmlns="http://www.w3.org/2000/svg">
<path d="M5.52791 5.216C4.80791 5.216 4.21591 5.008 3.75191 4.592C3.30391 4.16 3.07991 3.632 3.07991 3.008C3.07991 2.368 3.30391 1.84 3.75191 1.424C4.21591 0.992001 4.80791 0.776001 5.52791 0.776001C6.23191 0.776001 6.80791 0.992001 7.25591 1.424C7.71991 1.84 7.95191 2.368 7.95191 3.008C7.95191 3.632 7.71991 4.16 7.25591 4.592C6.80791 5.008 6.23191 5.216 5.52791 5.216ZM7.59191 21.728C7.59191 23.376 7.17591 24.56 6.34391 25.28C5.51191 26.016 4.35191 26.384 2.86391 26.384H1.25591V22.904H2.23991C2.68791 22.904 3.00791 22.816 3.19991 22.64C3.39191 22.464 3.48791 22.176 3.48791 21.776V6.608H7.59191V21.728Z" fill="currentColor"/>
<path d="M23.7666 6.608V20H19.6626V18.176C19.2466 18.768 18.6786 19.248 17.9586 19.616C17.2546 19.968 16.4706 20.144 15.6066 20.144C14.5826 20.144 13.6786 19.92 12.8946 19.472C12.1106 19.008 11.5026 18.344 11.0706 17.48C10.6386 16.616 10.4226 15.6 10.4226 14.432V6.608H14.5026V13.88C14.5026 14.776 14.7346 15.472 15.1986 15.968C15.6626 16.464 16.2866 16.712 17.0706 16.712C17.8706 16.712 18.5026 16.464 18.9666 15.968C19.4306 15.472 19.6626 14.776 19.6626 13.88V6.608H23.7666Z" fill="currentColor"/>
<path d="M32.1625 20.192C30.9945 20.192 29.9545 19.992 29.0425 19.592C28.1305 19.192 27.4105 18.648 26.8825 17.96C26.3545 17.256 26.0585 16.472 25.9945 15.608H30.0505C30.0985 16.072 30.3145 16.448 30.6985 16.736C31.0825 17.024 31.5545 17.168 32.1145 17.168C32.6265 17.168 33.0185 17.072 33.2905 16.88C33.5785 16.672 33.7225 16.408 33.7225 16.088C33.7225 15.704 33.5225 15.424 33.1225 15.248C32.7225 15.056 32.0745 14.848 31.1785 14.624C30.2185 14.4 29.4185 14.168 28.7785 13.928C28.1385 13.672 27.5865 13.28 27.1225 12.752C26.6585 12.208 26.4265 11.48 26.4265 10.568C26.4265 9.8 26.6345 9.104 27.0505 8.48C27.4825 7.84 28.1065 7.336 28.9225 6.968C29.7545 6.6 30.7385 6.416 31.8745 6.416C33.5545 6.416 34.8745 6.832 35.8345 7.664C36.8105 8.496 37.3705 9.6 37.5145 10.976H33.7225C33.6585 10.512 33.4505 10.144 33.0985 9.872C32.7625 9.6 32.3145 9.464 31.7545 9.464C31.2745 9.464 30.9065 9.56 30.6505 9.752C30.3945 9.928 30.2665 10.176 30.2665 10.496C30.2665 10.88 30.4665 11.168 30.8665 11.36C31.2825 11.552 31.9225 11.744 32.7865 11.936C33.7785 12.192 34.5865 12.448 35.2105 12.704C35.8345 12.944 36.3785 13.344 36.8425 13.904C37.3225 14.448 37.5705 15.184 37.5865 16.112C37.5865 16.896 37.3625 17.6 36.9145 18.224C36.4825 18.832 35.8505 19.312 35.0185 19.664C34.2025 20.016 33.2505 20.192 32.1625 20.192Z" fill="currentColor"/>
<path d="M8.95191 43.52V47H6.86391C5.37591 47 4.21591 46.64 3.38391 45.92C2.55191 45.184 2.13591 43.992 2.13591 42.344V37.016H0.503906V33.608H2.13591V30.344H6.23991V33.608H8.92791V37.016H6.23991V42.392C6.23991 42.792 6.33591 43.08 6.52791 43.256C6.71991 43.432 7.03991 43.52 7.48791 43.52H8.95191Z" fill="currentColor"/>
<path d="M13.3019 32.216C12.5819 32.216 11.9899 32.008 11.5259 31.592C11.0779 31.16 10.8539 30.632 10.8539 30.008C10.8539 29.368 11.0779 28.84 11.5259 28.424C11.9899 27.992 12.5819 27.776 13.3019 27.776C14.0059 27.776 14.5819 27.992 15.0299 28.424C15.4939 28.84 15.7259 29.368 15.7259 30.008C15.7259 30.632 15.4939 31.16 15.0299 31.592C14.5819 32.008 14.0059 32.216 13.3019 32.216ZM15.3419 33.608V47H11.2379V33.608H15.3419Z" fill="currentColor"/>
<path d="M26.476 33.464C28.044 33.464 29.292 33.976 30.22 35C31.164 36.008 31.636 37.4 31.636 39.176V47H27.556V39.728C27.556 38.832 27.324 38.136 26.86 37.64C26.396 37.144 25.772 36.896 24.988 36.896C24.204 36.896 23.58 37.144 23.116 37.64C22.652 38.136 22.42 38.832 22.42 39.728V47H18.316V33.608H22.42V35.384C22.836 34.792 23.396 34.328 24.1 33.992C24.804 33.64 25.596 33.464 26.476 33.464Z" fill="currentColor"/>
<path d="M36.4079 47.192C35.6879 47.192 35.0959 46.984 34.6319 46.568C34.1839 46.136 33.9599 45.608 33.9599 44.984C33.9599 44.344 34.1839 43.808 34.6319 43.376C35.0959 42.944 35.6879 42.728 36.4079 42.728C37.1119 42.728 37.6879 42.944 38.1359 43.376C38.5999 43.808 38.8319 44.344 38.8319 44.984C38.8319 45.608 38.5999 46.136 38.1359 46.568C37.6879 46.984 37.1119 47.192 36.4079 47.192Z" fill="currentColor"/>
</svg>
